# xmcd CD database file
#
# Track frame offsets:
#	150
#	22857
#	45570
#	68402
#	90771
#	114369
#	136181
#	158539
#	179527
#	225465
#	250687
#
# Disc length: 3610 seconds
#
# Revision: 1
# Processed by: cddbd v1.5.2PL0 Copyright (c) Steve Scherf et al.
# Submitted via: CDex 1.70beta2
#
DISCID=6e0e180b
DTITLE=Adalberto Alvarez y su Son - Suena Cubano
DYEAR=2002
DGENRE=Salsa
TTITLE0=Si no fuera por las mujeres
TTITLE1=Mi tumbao
TTITLE2=Bueno pero no es para tanto
TTITLE3=Hablando como extranjero
TTITLE4=Déjame llorar
TTITLE5=Caprichosa
TTITLE6=Cuentas verdes y amarillas
TTITLE7=Amor a primera vista
TTITLE8=Cuatro sones de Adalberto
TTITLE9=Somos el son de Cuba
TTITLE10=La cleptómana
EXTD=YEAR: 2002
EXTT0=
EXTT1=
EXTT2=
EXTT3=
EXTT4=
EXTT5=
EXTT6=
EXTT7=
EXTT8=
EXTT9=
EXTT10=
PLAYORDER=
